<svg xmlns="http://www.w3.org/2000/svg" viewBox="0 0 200 200"  fill="#2970FF"><path d="M102 17.5V33h12V2h-12v15.5m-49.5-6.392c-2.2 1.679-3.886 3.472-3.746 3.985C49.296 17.08 67.222 41 68.17 41c.552 0 2.969-1.412 5.373-3.138l4.369-3.138-4.05-5.612c-2.228-3.087-6.562-9.099-9.632-13.362-3.069-4.263-6.064-7.737-6.655-7.722-.591.015-2.875 1.401-5.075 3.08m99.859 5.142a2916.761 2916.761 0 00-9.646 13.315l-3.635 5.066 4.858 3.627c4.501 3.36 4.966 3.503 6.32 1.935 2.376-2.752 17.767-24.248 18.016-25.162.242-.891-7.684-7.031-9.078-7.031-.453 0-3.528 3.713-6.835 8.25M74.005 46.668C60.42 51.421 51.654 63.808 50.28 80.196c-.688 8.211.924 16.959 4.889 26.523l2.992 7.219-19.028 22.281L20.105 158.5l19.19 19.252c10.555 10.589 19.494 19.139 19.864 19 .37-.138 4.436-5.418 9.036-11.732l8.364-11.479 29.793-3.721c21.96-2.742 30.629-4.205 32.971-5.564 4.093-2.374 38.285-44.539 39.773-49.047 2.408-7.297-1.302-15.085-8.756-18.383l-4.345-1.922.633-6.815c.908-9.769-1.624-20.357-6.677-27.925-10.23-15.32-28.33-19.125-46.658-9.81l-4.72 2.399-5.542-2.817c-9.932-5.047-20.53-6.24-29.026-3.268M75.5 59.662c-4.412 2.326-7.424 5.334-9.847 9.838-1.831 3.402-2.153 5.645-2.153 15 0 10.334.196 11.415 3.248 17.858 2.542 5.366 3.609 6.719 4.91 6.22C77.142 106.474 109.654 99 113.325 99c9.12 0 16.08 9.328 13.616 18.25-1.678 6.077-5.115 9.129-14.9 13.233-4.973 2.085-9.041 4.179-9.041 4.654 0 1.171-.483 1.252 13.276-2.233l12.224-3.096 10.5-12.824c12.389-15.133 14.849-20.42 14.941-32.108.132-16.961-7.921-26.813-21.941-26.844-5.954-.013-13.718 2.99-19.882 7.692-2.712 2.068-3.721 2.36-5.007 1.449-4.353-3.084-10.673-6.607-13.955-7.779-5.014-1.791-14.009-1.655-17.656.268m73.492 64.312c-11.911 14.352-14.66 17.129-17.796 17.973-2.04.549-10.006 2.526-17.702 4.393L99.5 149.734l-6.12-6.636c-10.891-11.809-11.879-13.169-10.294-14.167.778-.49 8.276-3.648 16.664-7.018 12.26-4.926 15.25-6.505 15.25-8.052 0-1.058-.606-2.156-1.346-2.44-1.354-.52-39.993 8.729-44.654 10.689-1.375.578-9.093 8.83-17.15 18.338L37.2 157.735l10.263 10.229 10.264 10.228 5.644-8.009c4.989-7.079 6.08-8.078 9.387-8.596 2.058-.322 16.565-2.182 32.238-4.132 15.673-1.951 28.795-3.864 29.161-4.251.366-.387 7.896-9.704 16.734-20.704 9.387-11.684 16.076-20.891 16.088-22.143.017-1.756-1.662-3.357-3.521-3.357-.208 0-6.717 7.638-14.466 16.974" fill-rule="evenodd"/></svg>